<svg xmlns="http://www.w3.org/2000/svg" viewBox="0 0 711.2 618.8">
    <path fill="#e34142" d="M278.3 373.5l-2-7.4a2945 2945 0 0 0-5.4-19.7h-.3a938.3 938.3 0 0 1-5.3 19.7l-2.1 7.4zm2.4 8.3h-20l-4.6 16.2h-10.8l19.4-59.9h12.5l19.4 59.9h-11.3l-4.6-16.2M316.7 338.1h10.5v51h28.1v8.9h-38.6V338M395.2 367.5c8.8 0 13.2-3.6 13.2-10.9 0-3.8-1-6.4-3.3-7.8a18.3 18.3 0 0 0-9.9-2.2h-8.7v21zM376 338.1h20.2c3.3 0 6.3.3 9 1 2.8.6 5.3 1.6 7.3 3 2 1.5 3.6 3.4 4.8 5.8 1 2.3 1.7 5.2 1.7 8.7 0 3.3-.6 6.2-1.8 8.6a16.9 16.9 0 0 1-4.8 6.1 20 20 0 0 1-7.2 3.6 34 34 0 0 1-9 1.1h-9.6v22H376V338M436.8 338.1h10.6v24.1H468v-24h10.6V398H468v-26.5h-20.5V398h-10.6V338M527.3 373.5l-2-7.4a3302.5 3302.5 0 0 0-5.4-19.7h-.4a971.2 971.2 0 0 1-5.3 19.7l-2 7.4zm2.4 8.3h-20l-4.6 16.2h-10.8l19.4-59.9H526l19.4 59.9h-11.2l-4.6-16.2M0 478c0-4.8.7-9.2 2.1-13 1.4-4 3.3-7.2 5.8-9.9s5.4-4.7 8.8-6.1c3.4-1.4 7-2.1 11-2.1 3.7 0 7 .7 9.8 2.3 2.9 1.5 5.3 3.2 7.3 5.2l-6 6.6a18.5 18.5 0 0 0-4.9-3.6 15.5 15.5 0 0 0-13 .2 15 15 0 0 0-5.3 4.3 20.8 20.8 0 0 0-3.5 6.9c-.8 2.6-1.2 5.7-1.2 9 0 3.4.4 6.5 1.2 9.2.9 2.7 2 5 3.5 6.9a15.3 15.3 0 0 0 12.4 5.8c2.4 0 4.6-.5 6.6-1.6 1.9-1 3.7-2.5 5.4-4.4l5.9 6.5a26 26 0 0 1-8.3 6.5 23 23 0 0 1-10.2 2.2c-3.9 0-7.5-.6-10.8-2a24.3 24.3 0 0 1-8.7-6 27.8 27.8 0 0 1-5.8-9.6A38.2 38.2 0 0 1 0 478M84.2 499.7c1.9 0 3.6-.5 5.2-1.6 1.5-1 2.9-2.5 4-4.4 1-2 2-4.2 2.5-7a41.7 41.7 0 0 0-2.5-24.9c-2.3-3.8-5.3-5.7-9.2-5.7-3.8 0-6.9 2-9.2 5.7-2.3 3.9-3.4 9.1-3.4 15.8 0 3.4.3 6.4.8 9.1a24 24 0 0 0 2.6 7c1 2 2.4 3.4 4 4.4 1.5 1 3.3 1.6 5.2 1.6zm0 9.2a20.7 20.7 0 0 1-17-8.4c-2-2.7-3.6-6-4.8-9.8a45.4 45.4 0 0 1-1.7-13c0-4.9.6-9.2 1.7-13 1.2-3.8 2.8-7 4.8-9.7a20.8 20.8 0 0 1 17-8.1c3.5 0 6.7.7 9.6 2 2.9 1.5 5.3 3.5 7.4 6.1 2 2.6 3.6 5.9 4.8 9.7 1.2 3.8 1.7 8.1 1.7 13 0 4.8-.5 9.2-1.7 13a31.2 31.2 0 0 1-4.8 9.9 20.7 20.7 0 0 1-17 8.3M125.8 448h10.8l16 33.7 5.6 12.7h.2l-.9-10c-.3-3.6-.5-7-.5-10.4v-26H167v59.8h-10.8l-16-33.7-5.6-12.7h-.2l.9 10c.3 3.5.5 6.9.5 10.3v26.1h-10.1V448M203.4 457h-18.9v-9H233v9H214v50.8h-10.6V457M278.4 483.3l-2.2-7.3a3097 3097 0 0 0-5.3-19.8h-.3a948 948 0 0 1-5.3 19.8l-2.1 7.3zm2.3 8.3h-20l-4.6 16.2h-10.8l19.4-59.8h12.5l19.4 59.8h-11.3l-4.6-16.2M313.4 498.9H328v-42h-14.5v-9H353v9h-14.4v42h14.4v9h-39.5v-9M374.7 448h10.8l16 33.7 5.6 12.7h.3c-.2-3.1-.5-6.5-1-10-.3-3.6-.5-7-.5-10.4v-26h10.2v59.8h-10.8l-16-33.7-5.6-12.7h-.3l1 10c.3 3.5.5 6.9.5 10.3v26.1h-10.2V448M439.7 448H478v9h-27.7v15.2h23.5v9h-23.5v17.7H479v9h-39.2v-60M510.7 476h8.3a15 15 0 0 0 9.5-2.6c2.1-1.7 3.2-4.3 3.2-7.7 0-3.5-1-5.9-3.2-7.2-2.2-1.3-5.4-2-9.5-2h-8.3zm21.8 31.8l-12.8-23.4h-9v23.4h-10.6V448h20c3.1 0 6 .3 8.7.9 2.7.6 5 1.6 7 3 2 1.3 3.5 3.2 4.7 5.4 1 2.3 1.6 5 1.6 8.4 0 4.6-1 8.3-3.2 11.1-2.2 2.8-5 4.8-8.7 6l14.3 25h-12M84 587.2c8.8 0 13.2-3.6 13.2-10.9 0-3.8-1-6.4-3.3-7.8a18.3 18.3 0 0 0-9.9-2.2h-8.7v20.9zm-19.3-29.4H85c3.2 0 6.3.3 9 1 2.8.5 5.2 1.6 7.3 3 2 1.5 3.6 3.4 4.7 5.8 1.2 2.3 1.7 5.2 1.7 8.7 0 3.3-.5 6.2-1.7 8.6a16.9 16.9 0 0 1-4.8 6c-2 1.7-4.5 2.9-7.2 3.7-2.8.7-5.8 1.1-9 1.1h-9.6v22H64.7v-59.9M126.7 608.7H141v-42h-14.4v-8.9h39.5v9h-14.4v42h14.4v8.9h-39.5v-9M186.7 588c0-5 .7-9.3 2.1-13.2 1.4-3.9 3.4-7.2 5.8-9.8 2.5-2.7 5.4-4.8 8.8-6.2 3.4-1.4 7-2 11-2 3.7 0 7 .7 9.9 2.2 2.8 1.5 5.2 3.3 7.2 5.2l-6 6.6a18.4 18.4 0 0 0-4.9-3.5 15.5 15.5 0 0 0-13 .2 15 15 0 0 0-5.3 4.3 20.7 20.7 0 0 0-3.4 6.8 31.6 31.6 0 0 0 0 18.3c.8 2.7 2 5 3.4 6.8a15.3 15.3 0 0 0 12.4 5.8c2.5 0 4.7-.5 6.6-1.5 1.9-1 3.7-2.5 5.4-4.4l5.9 6.5c-2.5 2.8-5.2 5-8.3 6.4a23 23 0 0 1-10.2 2.3c-3.9 0-7.4-.7-10.8-2a24.3 24.3 0 0 1-8.7-6 27.9 27.9 0 0 1-5.8-9.7 38.2 38.2 0 0 1-2-13.2M265.6 566.8h-18.8v-9H295v9h-18.9v50.9h-10.6v-51M312.3 557.8H323v37.8c0 5 1 8.5 2.8 10.7a9.4 9.4 0 0 0 7.6 3.2c3.3 0 5.9-1 7.8-3.2 1.8-2.2 2.8-5.7 2.8-10.7v-37.8H354v37c0 8.2-1.8 14.3-5.4 18.2-3.6 3.8-8.7 5.8-15.3 5.8-6.6 0-11.7-2-15.4-5.9-3.7-3.9-5.6-10-5.6-18.1v-37M386.3 585.8h8.2a15 15 0 0 0 9.5-2.5c2.1-1.7 3.2-4.3 3.2-7.7 0-3.5-1-6-3.2-7.3-2.2-1.3-5.3-2-9.5-2h-8.2zm21.8 31.9l-12.9-23.5h-9v23.5h-10.6v-59.9h20c3.1 0 6 .3 8.7 1 2.7.5 5 1.5 7 2.9s3.5 3.2 4.7 5.4c1.1 2.3 1.7 5.1 1.7 8.5 0 4.5-1.1 8.2-3.3 11-2.2 2.9-5 4.9-8.6 6l14.2 25h-12M439.7 557.8H478v9h-27.7V582h23.5v9h-23.5v17.6H479v9h-39.2v-59.9M504 602.8a29 29 0 0 0 7.6 4.9c2.9 1.2 5.7 1.8 8.7 1.8 3.6 0 6.4-.7 8.3-2a6.6 6.6 0 0 0 2.8-5.7 6.2 6.2 0 0 0-2.8-5.3c-.8-.7-2-1.3-3.2-1.8l-4-1.6-8.2-3.6c-1.6-.6-3.1-1.4-4.6-2.3-1.6-1-3-2-4.2-3.3a14.8 14.8 0 0 1-4-10.3c0-2.4.5-4.6 1.6-6.7 1-2 2.4-3.8 4.3-5.3 1.8-1.6 4-2.8 6.5-3.6a27.3 27.3 0 0 1 18.9.8 29 29 0 0 1 8.7 5.5l-5.5 6.8a27 27 0 0 0-6.3-3.8c-2.2-.9-4.7-1.3-7.4-1.3-3.1 0-5.6.6-7.4 1.8a6 6 0 0 0-2.7 5.2c0 1.2.3 2.2.8 3a8 8 0 0 0 2.3 2.2c1 .6 2 1.2 3.3 1.7l3.9 1.5 7.8 3.4c2 .7 3.7 1.6 5.3 2.6 1.5 1 3 2 4 3.4a14 14 0 0 1 2.8 4.4c.6 1.7 1 3.6 1 5.8a15.9 15.9 0 0 1-6 12.5 21.2 21.2 0 0 1-6.9 3.9 32.5 32.5 0 0 1-31.7-7.4l6.3-7.2M283.4 169.7L245.7 132v-28.3L283.4 66h37.7v37.7h-22.7l-15 14 15 14.3H321v37.7zm56.6 0v-117l-15-15h-26.6l-15 15h-37.7v-15L283.4 0H340l37.7 37.7v132H340M508 169.7h-18.8V132h3.9l15-15h37.6v15zm0-117l-15-15h-3.8V0H508l37.7 37.7v15zm-56.5 117L413.7 132V37.7L451.5 0h18.8v37.7h-3.9l-15 15V117l15 15h3.9v37.7h-18.8M673.5 169.7h-37.7V132h22.4l15.3-15V52.7l-15.3-15h-22.4V0h37.7l37.7 37.7V132zm-94.3 449V0h37.7v618.8h-37.7" />
</svg>
