<svg xmlns="http://www.w3.org/2000/svg" viewBox="0 0 115.4 100.4"><path d="M45.6 62h-3.2l-.8 2.6h-1.8l3.2-9.7h2l3.2 9.7h-1.9l-.7-2.6zm-.4-1.4l-.3-1.2-.4-1.6c-.2-.5-.3-1.1-.4-1.6H44l-.4 1.6c-.1.5-.3 1.1-.4 1.6l-.3 1.2h2.3zm6.2-5.7h1.7v8.3h4.6v1.4h-6.3v-9.7zm9.6 0h3.3c.5 0 1 0 1.5.2.4.1.8.3 1.2.5.3.2.6.6.8.9.2.4.3.9.3 1.4 0 .5-.1 1-.3 1.4-.2.4-.4.7-.8 1-.3.3-.8.5-1.2.6-.5.1-1 .2-1.5.2h-1.6v3.6H61v-9.8zm3.1 4.7c1.4 0 2.1-.6 2.1-1.8.1-.5-.1-1-.5-1.3-.5-.3-1-.4-1.6-.3h-1.4v3.4h1.4zm6.8-4.7h1.7v3.9h3.3v-3.9h1.7v9.7h-1.7v-4.3h-3.3v4.3h-1.7v-9.7zM86 62h-3.3l-.7 2.6h-1.8l3.2-9.7h2l3.2 9.7h-1.8L86 62zm-.4-1.4l-.3-1.2-.4-1.6c-.2-.5-.3-1.1-.4-1.6h-.1l-.4 1.6c-.2.5-.3 1.1-.4 1.6l-.3 1.2h2.3z" fill="#e34141"/><path d="M0 77.6c0-.7.1-1.4.3-2.1.2-.6.6-1.1 1-1.6.4-.4.9-.8 1.4-1 .6-.2 1.2-.3 1.8-.3.6 0 1.1.1 1.6.4.4.2.8.5 1.2.8l-1 1.1c-.2-.2-.5-.4-.8-.6-.3-.1-.7-.2-1-.2-.4 0-.8.1-1.1.2-.3.2-.6.4-.9.7-.3.3-.4.7-.5 1.1-.1.5-.2 1-.2 1.5s.1 1 .2 1.4c.1.4.3.8.6 1.1.2.3.5.5.9.7.4.2.7.3 1.1.2.4 0 .7-.1 1.1-.3.3-.2.6-.4.9-.7l1 1.1c-.4.4-.8.8-1.3 1-.5.3-1.1.4-1.7.4-.6 0-1.2-.1-1.7-.3-.5-.2-1-.6-1.4-1-.4-.5-.7-1-.9-1.6-.4-.6-.6-1.3-.6-2zm13.7 5c-.5 0-1.1-.1-1.6-.3-.5-.2-.9-.6-1.2-1-.4-.5-.6-1-.8-1.6a7.5 7.5 0 0 1 0-4.2c.2-.6.4-1.1.8-1.6.3-.4.7-.8 1.2-1 1-.5 2.1-.5 3.1 0 .5.2.9.6 1.2 1 .4.5.6 1 .8 1.6.4 1.4.4 2.8 0 4.2-.2.6-.4 1.1-.8 1.6-.3.4-.7.8-1.2 1-.5.2-1 .3-1.5.3zm0-1.5c.3 0 .6-.1.8-.3.3-.2.5-.4.6-.7.2-.3.3-.7.4-1.1.1-.5.2-1 .1-1.5 0-.9-.2-1.8-.6-2.5-.4-.8-1.4-1.2-2.2-.8-.3.2-.6.4-.8.8-.4.8-.6 1.7-.6 2.6 0 .5 0 1 .2 1.4.1.4.2.8.4 1.1.1.3.4.5.6.7.5.2.8.3 1.1.3zm6.7-8.4h1.8l2.6 5.5.9 2.1c0-.5-.1-1-.1-1.6-.1-.6-.1-1.1-.1-1.7v-4.2h1.6v9.7h-1.7L22.8 77l-.9-2c0 .5.1 1.1.1 1.6.1.6.1 1.1.1 1.7v4.2h-1.7v-9.8zM33 74.2h-3v-1.5h7.8v1.5h-3.1v8.3H33v-8.3zm12.6 5.6h-3.2l-.8 2.6h-1.8l3.2-9.7h2l3.2 9.7h-1.9l-.7-2.6zm-.4-1.4l-.3-1.2c-.1-.5-.3-1-.4-1.6s-.4-1-.5-1.6h-.1l-.4 1.6c-.1.5-.3 1.1-.4 1.6l-.3 1.2h2.4zm5.7 2.6h2.3v-6.8h-2.3v-1.5h6.4v1.5H55V81h2.3v1.5h-6.4V81zm9.9-8.3h1.8l2.6 5.5.9 2.1c0-.5-.1-1-.2-1.6-.1-.6-.1-1.1-.1-1.7v-4.2h1.7v9.7h-1.7L63.2 77l-.9-2c0 .5.1 1.1.2 1.6.1.6.1 1.1.1 1.7v4.2h-1.7v-9.8zm10.6 0h6.2v1.5h-4.5v2.5h3.8v1.5h-3.8V81h4.6v1.5h-6.3v-9.8zm15 9.7l-2.1-3.8h-1.5v3.8h-1.7v-9.7h3.2c.5 0 .9 0 1.4.2.4.1.8.3 1.1.5.3.2.6.5.8.9.2.4.3.9.3 1.4.1 1.3-.7 2.4-1.9 2.8l2.3 4.1-1.9-.2zm-3.5-5.2h1.3c.5 0 1.1-.1 1.5-.4.4-.3.6-.8.5-1.2.1-.5-.1-.9-.5-1.2-.5-.2-1-.4-1.5-.3h-1.3v3.1z"/><path d="M10.5 90.1h3.3c.5 0 1 0 1.5.2.4.1.8.3 1.2.5.3.2.6.6.8.9.2.4.3.9.3 1.4 0 .5-.1 1-.3 1.4-.2.4-.4.7-.8 1-.4.3-.8.5-1.2.6-.5.1-1 .2-1.5.2h-1.5v3.6h-1.7v-9.8zm3.1 4.7c1.4 0 2.1-.6 2.1-1.8.1-.5-.1-1-.5-1.3-.5-.3-1-.4-1.6-.3h-1.4v3.4h1.4zm7 3.5H23v-6.8h-2.4V90H27v1.5h-2.4v6.8H27v1.5h-6.4v-1.5zm9.7-3.4c0-.7.1-1.4.4-2.1.2-.6.5-1.1.9-1.6.4-.4.9-.8 1.4-1 .6-.2 1.2-.3 1.8-.3.6 0 1.1.1 1.6.4.4.2.8.5 1.2.8l-1 1.1c-.2-.2-.5-.4-.8-.6-.3-.2-.7-.2-1-.2-.4 0-.8.1-1.1.2-.3.2-.6.4-.9.7-.3.3-.4.7-.6 1.1-.1.5-.2 1-.2 1.5s.1 1 .2 1.5c.1.4.3.8.6 1.1.2.3.5.5.9.7.4.2.7.2 1.1.2.4 0 .7-.1 1.1-.2.3-.2.6-.4.9-.7l1 1.1c-.4.4-.8.8-1.3 1-.5.2-1.1.4-1.7.4-.6 0-1.2-.1-1.8-.3-.5-.2-1-.6-1.4-1-.4-.5-.7-1-.9-1.6-.3-.7-.4-1.4-.4-2.2zm12.8-3.4H40V90h7.8v1.5h-3.1v8.3H43v-8.3zm7.6-1.4h1.7v6.1c-.1.6.1 1.2.5 1.7.3.4.8.5 1.2.5.5 0 .9-.2 1.3-.5.4-.5.5-1.1.5-1.7v-6.1h1.7v6c.1 1.1-.2 2.2-.9 3-.7.7-1.6 1-2.5.9-.9 0-1.8-.3-2.5-1-.7-.8-1-1.9-.9-2.9l-.1-6zm15.5 9.7l-2-3.8h-1.5v3.8H61v-9.7h3.2c.5 0 1 0 1.4.2.4.1.8.3 1.1.5.3.2.6.5.8.9.2.4.3.9.3 1.4.1 1.3-.7 2.4-1.9 2.8l2.3 4.1h-2zm-3.5-5.2H64c.5 0 1.1-.1 1.5-.4.4-.3.6-.8.5-1.2.1-.5-.2-.9-.5-1.2-.5-.2-1-.4-1.5-.3h-1.3v3.1zm8.7-4.5h6.2v1.5h-4.5V94h3.8v1.4h-3.8v2.9h4.6v1.5h-6.3v-9.7zm10.4 7.2c.4.3.8.6 1.2.8.4.2.9.3 1.4.3.5 0 .9-.1 1.3-.3.3-.2.5-.5.5-.9 0-.2 0-.4-.1-.5-.1-.1-.2-.3-.3-.4-.2-.1-.3-.2-.5-.3l-.7-.3-1.3-.6c-.3-.1-.5-.2-.8-.4-.2-.1-.5-.3-.7-.5-.4-.4-.7-1-.7-1.7 0-.4.1-.8.3-1.1.2-.3.4-.6.7-.9.3-.3.7-.5 1.1-.6.4-.1.9-.2 1.4-.2.6 0 1.2.1 1.7.3.5.2 1 .5 1.4.9l-.9 1.1c-.3-.2-.6-.4-1-.6-.4-.2-.8-.2-1.2-.2-.4 0-.8.1-1.2.3-.3.2-.4.5-.4.9 0 .2 0 .3.1.5.1.1.2.3.4.4.2.1.3.2.5.3l.6.2 1.3.6c.3.1.6.3.8.4.2.1.5.3.7.6.2.2.3.5.4.7.1.3.2.6.2.9 0 .4-.1.8-.2 1.1-.2.4-.4.7-.7.9-.3.3-.7.5-1.1.6-.5.2-1 .2-1.5.2-1.4 0-2.7-.5-3.7-1.4l1-1.1z" fill="#999"/><path d="M94 42h6v58h-6zM55.2 27.5v-19l-2.4-2.4h-4.3L46 8.5h-6.1V6.1L46 0h9.2l6.1 6.1v21.4h-6.1zm-9.2 0l-6.1-6.1v-4.6l6.1-6.1h6.1v6.1h-3.7L46 19.1l2.4 2.3h3.7v6.1H46zm27.3 0l-6.1-6.1V6.1L73.3 0h3.1v6.1h-.6l-2.4 2.4V19l2.4 2.4h.6v6.1h-3.1zm9.1-19L80 6.1h-.6V0h3.1l6.1 6.1v2.4h-6.2zm0 19h-3.1v-6.1h.7l2.4-2.4h6.1v2.4l-6.1 6.1zM109.3 0h-6.1v6.1h3.6l2.5 2.4V19l-2.5 2.4h-3.6v6.1h6.1l6.1-6.1V6.1L109.3 0zM94 0v42h6V0h-6z" fill="#e34141"/></svg>
