<svg xmlns="http://www.w3.org/2000/svg" width="23" height="23" viewBox="0 0 23 23"><path d="M9.5 0H8.2l-.9 3.3L6.5 0H5c.3.9.6 1.6.9 2.4.4 1.1.7 2.2.7 2.7v3.4h1.3V5.2L9.5 0zm3.4 6.5V4.3c0-.7-.1-1.2-.4-1.6-.3-.4-.7-.6-1.3-.6s-1 .3-1.3.7c-.3.4-.4.8-.4 1.5v2.3c0 .7.1 1.2.4 1.4.3.4.7.6 1.3.6s1-.3 1.3-.7c.3-.1.4-.7.4-1.4zm-1.1.3c0 .6-.1.9-.6.9s-.6-.3-.6-.9V4c0-.6.1-.9.6-.9s.6.3.6.9v2.8zm5.4 1.8V2.2h-1.1V7c-.3.4-.4.6-.7.6-.1 0-.3-.1-.3-.3V2.2h-1.2v5c0 .4 0 .7.1 1 0 .3.3.4.7.4.4 0 .9-.3 1.3-.7v.7h1.2zm.6 6.5c-.4 0-.6.3-.6.9v.6h1.1V16c.1-.6 0-.9-.5-.9zm-4.1 0c-.1 0-.4.1-.6.3v3.9c.1.1.4.3.6.3.3 0 .4-.3.4-.9V16c0-.6-.2-.9-.4-.9zm7-3.2c-.3-1-1.1-1.9-2-1.9-2.3-.3-4.7-.3-7.2-.3s-4.7 0-7.2.3c-.9 0-1.7.9-2 1.9-.3 1.5-.3 3-.3 4.5s0 3 .3 4.5c.3 1 1 1.7 2 1.9 2.5.2 4.8.2 7.2.2s4.7 0 7.2-.3c1-.1 1.9-.9 2-1.9.3-1.4.3-3 .3-4.5s0-2.9-.3-4.4zM7.5 13.2H6v7.3H4.7v-7.3H3.4v-1.3h4v1.3zm3.4 7.4H9.8v-.7c-.4.6-.9.7-1.3.7s-.6-.1-.7-.4c0-.1-.1-.4-.1-1v-5h1.2v5c0 .1.1.3.3.3.3 0 .4-.1.7-.6v-4.7h1.2c-.2-.1-.2 6.4-.2 6.4zm4.3-2.1c0 .6 0 1-.1 1.3-.1.4-.4.7-.9.7-.4 0-.9-.3-1.2-.7v.6h-1.2v-8.5H13v2.7c.4-.4.7-.7 1.2-.7.4 0 .7.3.9.7.1.3.1.7.1 1.3v2.6zm4.4-1h-2.3v1.2c0 .6.1.9.6.9.3 0 .4-.1.6-.4v-.7h1.1v.9c0 .3-.1.4-.3.7-.3.4-.7.7-1.4.7-.6 0-1-.3-1.4-.7-.3-.3-.4-.9-.4-1.4v-2.2c0-.7.1-1.2.3-1.4.3-.4.7-.7 1.4-.7.6 0 1 .3 1.3.7.3.3.3.9.3 1.4v1.1l.2-.1z"/></svg>
